<svg id="Layer_1_Image" data-name="Layer 1 Image" xmlns="http://www.w3.org/2000/svg" viewBox="0 0 2259.36 422.87"><defs><style>.cls-1{fill:#fff;}.cls-2{fill:#35599a;}.cls-3{fill:#ff0505;}.cls-4{fill:#fefefe;}.cls-5{fill:#ff0303;}.cls-6{fill:#0271c1;}.cls-7{fill:#568237;}.cls-8{fill:#355999;}.cls-9{fill:#ff0404;}.cls-10{fill:#0372c1;}.cls-11{fill:#0371c1;}.cls-12{fill:#375b9b;}.cls-13{fill:#365a9a;}.cls-14{fill:#375a9a;}.cls-15{fill:#578338;}.cls-16{fill:#375a9b;}.cls-17{fill:#0572c2;}.cls-18{fill:#0573c2;}.cls-19{fill:#36599a;}.cls-20{fill:#fefeff;}.cls-21{fill:#fdfdfe;}.cls-22{fill:#fcfcfd;}</style></defs><title>glycan_logo</title><path class="cls-1" d="M36.32,314.08V10.25H2295.68v98.87c-2.81-5.5-5.62-11-8.5-16.64h-22.86c-2.71,5.39-5.33,10.68-8,15.94a3.86,3.86,0,0,0,0,3.85c2.09,4,4.09,8.13,6.13,12.19l1.91,3.82c7.2,0,14.22,0,21.24,0a2,2,0,0,0,2-1.08c.47-.84,1-1.65,1.41-2.5,2.25-4.56,4.47-9.12,6.7-13.68V433.12h-1548a14.38,14.38,0,0,1,1.56-.42c4.42-.67,8.9-1.05,13.25-2a81.18,81.18,0,0,0,42.29-24,94,94,0,0,0,18.8-30.69,108.37,108.37,0,0,0,4.72-15.34L800,353.52c-.35,1.16-.67,2.22-1,3.28a101.32,101.32,0,0,1-6.36,17.3c-7.09,14.45-18.07,24.64-33.31,30a67,67,0,0,1-34.06,2.66c-25.25-4.32-42.58-18.25-51.15-42.65-4.28-12.18-6-24.8-6.66-37.63a130.58,130.58,0,0,1,.91-22A111.66,111.66,0,0,1,675.72,275c6.75-16.5,18.42-28.18,35-34.54a75.55,75.55,0,0,1,46.43-2.6,48.59,48.59,0,0,1,29.79,21.53A80.5,80.5,0,0,1,794.27,274c.77,2,1.51,4,2.33,6.19l27.4-6.31a8.57,8.57,0,0,0-.72-5c-1.61-4.09-3.11-8.24-5-12.18-9.71-19.9-24.88-33.85-45.83-41.24-11.66-4.11-23.78-5.42-36.11-5.13a107.89,107.89,0,0,0-31.77,5.47c-26,8.65-44.82,25.27-56.14,50.29-7.13,15.78-10,32.46-10.54,49.62a152.48,152.48,0,0,0,2.27,31.28c2.59,14.83,7.14,29,14.57,42.15,10,17.63,24.17,30.44,43.19,37.69,7.58,2.9,15.52,4.35,23.53,5.42l7.06,1H156.32c.6-.14,1.2-.32,1.8-.42,5.92-.92,11.92-1.48,17.74-2.8,22.15-5,41.72-15.39,59.39-29.53a3.73,3.73,0,0,0,1.39-3.31q0-37.55,0-75.11c0-.77-.08-1.54-.12-2.41H145.17v25.28H208c.09.53.17.76.18,1q.23,18.6.45,37.18a4.13,4.13,0,0,1-1.75,3.51c-2,1.49-3.93,3-6,4.35a112.72,112.72,0,0,1-22.13,10.86c-21.2,7.75-42.49,8.19-63.86.7C96,395.78,82.37,383.45,74.42,365c-4.59-10.63-6.42-21.88-7.37-33.31a119.42,119.42,0,0,1,.42-23.23,104.83,104.83,0,0,1,7.92-31c8.34-18.89,22.13-31.82,42-38a94.29,94.29,0,0,1,29.11-3.83,76.78,76.78,0,0,1,26.73,5c13.59,5.19,23.59,14.18,29.23,27.73,1.38,3.31,2.57,6.71,3.84,10.07.39,1,.74,2.08,1.21,3.38l25.5-6.92c-.05-.39-.07-.71-.14-1a97.88,97.88,0,0,0-7.48-21.2c-6.25-12.9-15.4-23.06-28-30a91.45,91.45,0,0,0-14.67-6.5c-13.48-4.59-27.37-6.17-41.55-5.89a125.72,125.72,0,0,0-34.45,5.48c-15.43,4.72-29,12.48-40.21,24.24-8,8.45-13.86,18.35-18.5,29a128.51,128.51,0,0,0-10.32,41.45,35.79,35.79,0,0,1-.41,3.57C37.15,314.57,36.73,314.65,36.32,314.08ZM1361.37,64.34c-4.75,9.54-9.37,18.85-14,28.14q-21.72,43.41-43.5,86.78a4.28,4.28,0,0,0,.05,4.71,13.93,13.93,0,0,1,.67,1.27q27.3,54.56,54.61,109.11c.71,1.42,1.43,2.84,2.21,4.37h2.18c6.4,0,12.8,0,19.2,0l74.4,0c16.88,0,33.76-.08,50.63,0a3.16,3.16,0,0,0,3.29-2q27.92-55.86,56-111.64a6.94,6.94,0,0,0,0-7c-6.47-12.67-12.82-25.39-19.2-38.11q-18.4-36.75-36.76-73.55a3.29,3.29,0,0,0-3.43-2.17q-70.44.14-140.87.15Zm430.17-53.11c-3.09-.15-6-.4-9-.41-10.56-.05-21.11,0-31.67,0H1695c-4.88,0-9.76,0-14.64,0a3.73,3.73,0,0,0-3.89,2.46c-1.7,3.79-3.66,7.46-5.51,11.18q-18.45,37-37,74a4.58,4.58,0,0,0,0,4.65c3.89,7.7,7.63,15.48,11.49,23.2q15.35,30.78,30.76,61.53c.42.85.85,1.69,1.29,2.54h113.81c.37-.7.69-1.25,1-1.81q9.64-19.43,19.31-38.85,11.73-23.49,23.56-46.91a3.66,3.66,0,0,0,.06-3.8c-1.58-3-3-6-4.5-9q-15.13-30.22-30.27-60.45C1797.51,23.51,1794.6,17.47,1791.54,11.23Zm76.84,128c-2.66,5.38-5.17,10.54-7.75,15.68q-14.87,29.69-29.8,59.34a5.58,5.58,0,0,0,0,5.64c3,5.8,5.92,11.69,8.84,17.55q13.92,27.89,27.79,55.79a2.91,2.91,0,0,0,3.1,1.93c5-.09,9.91,0,14.87,0q39.82,0,79.65.09a2.65,2.65,0,0,0,2.79-1.66c3-6.17,6.19-12.27,9.27-18.42,8.9-17.8,17.68-35.65,26.74-53.37,1.79-3.5,1.71-6.2-.07-9.69-11.87-23.37-23.5-46.86-35.21-70.31-.42-.85-.88-1.68-1.37-2.6Zm-804.27,74.6V429.52c9.22.13,18.37.25,27.69-.09V357.2q0-12,0-24t0-24c0-8,0-16,0-24s0-15.84.39-23.78a4.77,4.77,0,0,1,1.19,1.3q17.75,26.67,35.47,53.32,37.18,55.8,74.35,111.59a3.69,3.69,0,0,0,3.48,1.93c8.32,0,16.63,0,24.95,0,.7,0,1.4-.08,2.17-.12V214c-4.92-.61-25.27-.36-27.29.31v5.49q0,26.16,0,52.31c0,17.35.07,34.71.09,52.06q0,24.36,0,48.71c0,2.56-.19,5.11-.32,7.67a11.93,11.93,0,0,1-.28,1.59L1093.51,213.86Zm-110.25,0c-.66,0-1.05-.07-1.45-.07q-13.32,0-26.63,0c-2.83,0-2.91.1-4,2.83q-25.55,66.59-51.08,133.18-14.67,38.26-29.26,76.58c-.35.92-.65,1.86-1.05,3.05h30.19q11.77-32.5,23.49-64.86h90.16q12.47,32.46,24.85,64.75c5.91.6,30.21.41,32.49-.31ZM534.91,429.17v-2.76q0-42.84,0-85.66a7.76,7.76,0,0,1,1.49-4.67q14.08-20.29,28.08-40.66,27.24-39.48,54.49-79c.52-.75,1-1.54,1.56-2.44a7.37,7.37,0,0,0-1-.17c-9.84,0-19.68,0-29.51,0a4.48,4.48,0,0,0-4.22,2.42q-12.9,19.8-26,39.49c-12.57,19-25.07,38-36.55,57.75-.27.46-.6.9-1,1.51-1.89-3.24-3.68-6.36-5.5-9.45-18.15-30.71-38.52-60-57.68-90.07a3.53,3.53,0,0,0-3.41-1.69c-10.15.06-20.31,0-30.47.07a16.12,16.12,0,0,0-1.82.24c.82,1.25,1.46,2.25,2.12,3.23q39.39,59.07,78.8,118.12a11,11,0,0,1,1.95,6.48q-.09,42.36,0,84.71v2.74C509.54,429.85,532.64,429.7,534.91,429.17ZM2135.13,128.4h-65.55c-.51,1-.95,1.84-1.38,2.7-7.38,14.7-14.73,29.42-22.18,44.09a6,6,0,0,0,0,6.06q11.34,22.32,22.43,44.77a3.56,3.56,0,0,0,3.81,2.32q30.11-.09,60.21,0h2.3c.27-.44.46-.7.6-1q12-23.88,24-47.76a3.06,3.06,0,0,0-.06-3.11q-3.75-7.24-7.39-14.53C2146.31,150.78,2140.74,139.64,2135.13,128.4ZM277.25,214c-.52,4.06-.32,213.8.19,215.51h134.2c.52-2.72.42-23.44-.15-25.25H332.38c-8.76,0-17.52,0-26.53,0V214Zm1394.18-3.45c-.31.46-.51.71-.66,1q-9.62,19-19.23,38.1a3.91,3.91,0,0,0,.16,3.86q9.21,18.18,18.33,36.41c.42.84.89,1.66,1.33,2.46,16.76,0,33.32,0,49.87,0a2.13,2.13,0,0,0,2.15-1.48q9.55-19.23,19.16-38.41a2.66,2.66,0,0,0,0-2.67q-9.37-18.51-18.64-37.06a3.46,3.46,0,0,0-3.64-2.27c-15.52.1-31,.05-46.56.05ZM2110.74,91.76c.37-.69.72-1.31,1-2,5.8-11.57,11.55-23.17,17.42-34.7a7.09,7.09,0,0,0-.06-7.06c-.79-1.48-1.69-2.91-2.44-4.41-4.32-8.64-8.6-17.3-12.91-26-1-2-2-4-3-6h-50.86c-.2.36-.37.63-.51.91-6.25,12.51-12.47,25-18.76,37.51a3.46,3.46,0,0,0,0,3.53c5,9.9,10,19.83,15,29.76,1.39,2.77,2.76,5.55,4.14,8.33ZM1941.67,40.57a8.72,8.72,0,0,0-.58.87c-5.48,11-10.94,22-16.48,33a3.27,3.27,0,0,0,.19,3.34q6.87,13.58,13.67,27.18c1,2.06,2,4.14,3.07,6.27h46.24c.21-.32.36-.51.47-.72,5.41-10.87,10.78-21.76,16.25-32.59a4,4,0,0,0,0-4c-3.6-7.21-7.12-14.47-10.7-21.7-1.94-3.92-4-7.81-5.92-11.66ZM1537.82,416.8V383.65c4.81,0,9.35,0,13.9,0a12.67,12.67,0,0,1,8.94,3.48,32.77,32.77,0,0,1,4.89,5.57c5,7.48,10,15.06,14.87,22.65a2.81,2.81,0,0,0,2.67,1.55c5-.06,9.91,0,14.87,0h7.55l8.64-23.34h29c2.22,0,2.22,0,3,2q3.9,10.19,7.81,20.36a7.92,7.92,0,0,0,.5.91c3.81,0,7.59.64,11.65,0-10.57-25.37-21-50.49-31.52-75.66h-10.3c-.38.93-.76,1.8-1.1,2.69q-13.43,34.38-26.83,68.77a6.08,6.08,0,0,1-2.83,3.37,5.45,5.45,0,0,1-.5-.59c-4.75-7.49-9.41-15-14.29-22.44a28.46,28.46,0,0,0-10-9.47,4.72,4.72,0,0,0-1.13-.25c3.9-1.48,7.11-2.49,10.14-3.89a17.56,17.56,0,0,0,9.6-11.65,20.55,20.55,0,0,0,.28-10.67c-1.92-8-6.7-13.77-15.62-15.14a56.22,56.22,0,0,0-7.86-.76c-10.24-.1-20.48-.08-30.71-.07-2,0-4,.14-6,.22V416.8Zm216.07-66.62h44.35c0-3.2.08-6.1,0-9-5.86-.57-53-.29-54.85.28-.48,5.84-.25,73.45.26,75.2,6.82.6,53.13.48,56.28-.15v-8.77h-46V381.71h41.34v-9.07h-41.37Zm-296.71-9c-.47,4.24-.28,73.77.2,75.58,18.72.34,37.47.49,56.38-.08V408c-15.67-.65-31.08,0-46.64-.38.16-8.75-.18-17.25.16-25.85,14.06-.1,27.85.09,41.58-.13v-9.11h-41.6V350.22h44.62v-9Zm657.12,21.48c-.93-8.14-4.08-14.52-11.15-18.54a32.57,32.57,0,0,0-14-3.91c-7.06-.5-14,.22-20.2,3.78-6.47,3.68-10,9.27-10,16.83-.05,7.39,3.51,12.67,9.91,16a48.65,48.65,0,0,0,8.91,3.46c5.6,1.61,11.29,2.89,16.92,4.38a21.61,21.61,0,0,1,8.59,4.09,8.53,8.53,0,0,1,3.05,8.58,11.41,11.41,0,0,1-6.93,8.87,28,28,0,0,1-24.12-.42,15.54,15.54,0,0,1-8.57-10.09c-.48-1.59-.8-3.22-1.22-4.92h-9.42c0,.55,0,.94,0,1.32.83,11.16,7.35,20.29,18,23.72a44.9,44.9,0,0,0,22,1.29,26.31,26.31,0,0,0,15-7.95c7.1-7.63,8.47-22.76-4.06-30.23a41.08,41.08,0,0,0-7.63-3.4c-2.93-1-6-1.7-9-2.43a116.52,116.52,0,0,1-16.33-4.69,8.86,8.86,0,0,1-3.48-13.47,13.15,13.15,0,0,1,7.78-4.84,32.75,32.75,0,0,1,14.74-.06c5.63,1.26,9.43,4.5,10.78,10.28.18.76.43,1.5.69,2.36Zm56.61-77.74c-3.65-7.27-7.31-14.44-10.85-21.69a2.92,2.92,0,0,0-3.13-1.87c-7.75.07-15.51.16-23.25,0-3.07-.08-5.26.46-6.07,3.74a11,11,0,0,1-1.07,2.14c-2.59,5.22-5.13,10.46-7.78,15.66a4.27,4.27,0,0,0,.08,4.26c2.8,5.47,5.5,11,8.24,16.5.77,1.55,1.56,3.11,2.39,4.75,9.53,0,19,0,28.37,0a1.84,1.84,0,0,0,1.81-1.24Q2165.26,296.08,2170.91,284.94Zm1.57-222.34c-3.67,7.34-7.18,14.51-10.85,21.61a3.61,3.61,0,0,0,.06,3.75c3.4,6.7,6.72,13.43,10.08,20.15.24.48.56.93.85,1.41,1.86,0,3.61,0,5.37,0,7.44,0,14.87-.06,22.31,0a2.93,2.93,0,0,0,3.1-2c1.94-4.28,4.11-8.47,6.21-12.69,1.46-2.93,2.94-5.85,4.41-8.77L2202.19,62.6Zm28.84,139.66c-1.62,3.17-3.26,6.27-4.8,9.42-2,4.15-4,8.35-6,12.5a3.44,3.44,0,0,0,.09,3.39c1.57,3.05,3,6.15,4.58,9.22,2.07,4.13,4.16,8.24,6.28,12.41h1.28c8.63,0,17.26-.09,25.88,0a3.47,3.47,0,0,0,3.54-2.21c3.07-6.22,6.12-12.46,9.31-18.63a5.68,5.68,0,0,0,0-5.67c-3.12-6.11-6.19-12.25-9.29-18.37-.35-.7-.78-1.35-1.19-2.05Zm-770.7,169.41c-13.21-.05-26.19.19-39.42-.11V341.09c-2.89,0-5.52,0-8.14,0-.55,0-1.09.11-1.77.18v75.53h10V381.4c6.49-.78,37-.86,39.42-.08v35.5h9.8c.55-4.75.38-73.91-.16-75.65h-9.73Zm242.23-30.52v75.73h10v-30.6c2.62,0,5,0,7.37,0a135.77,135.77,0,0,0,21-.69c7.81-1.06,13.86-4.65,17.15-12.11a24.5,24.5,0,0,0,1.1-17.54c-2.2-7.23-6.85-12-14.34-13.63a48.88,48.88,0,0,0-9.48-1.18c-10.23-.16-20.46-.09-30.69-.1C1674.35,341,1673.66,341.11,1672.85,341.15Zm140.94,0v2.35c0,14.47,0,28.94.09,43.42a61,61,0,0,0,.93,10c1.75,10.17,7.38,17,17.59,19.59a43.24,43.24,0,0,0,23.21-.24c8.52-2.54,14.26-8.08,16.29-16.9a48.77,48.77,0,0,0,1.36-10.18c.15-15.51.09-31,.09-46.53,0-.46-.08-.92-.13-1.44h-10V344q0,21.48,0,42.94a40.16,40.16,0,0,1-1.47,10.89c-1.48,5.27-4.93,8.44-10.14,9.83a30.82,30.82,0,0,1-11.89.84c-9.19-1.13-14.07-6-15.16-14.6A74.85,74.85,0,0,1,1824,385c0-13.75,0-27.5,0-41.25v-2.64Zm232.4,21.35a6.87,6.87,0,0,0-.13-1.25c-3.24-9.82-9.42-16.79-19.55-19.74a35.63,35.63,0,0,0-15.2-1.08c-13.17,1.89-22.67,8.57-27.75,21.08-2.42,6-2.92,12.22-2.82,18.6a46.94,46.94,0,0,0,6.17,22.88,28,28,0,0,0,13.33,12c5.54,2.47,11.4,3,17.36,2.83,13.46-.28,23.85-7.7,28.52-20.36.57-1.55,1-3.15,1.53-4.88-3.5-1.06-6.73-2.09-10-2.25a3.66,3.66,0,0,0-.26.46c-.18.61-.34,1.23-.53,1.83-2,6.33-5.54,11.35-11.72,14.12-10.31,4.61-26.89,1.68-31.82-13.74a43.89,43.89,0,0,1,.52-29.4c2.68-7.2,8-11.6,15.4-13.48a27.32,27.32,0,0,1,10.47-.56c6.12.81,10.83,3.7,13.93,9.05,1.07,1.85,1.91,3.84,3,6.06Zm-127.11,54.59V350.2h24.69v-8.94c-3.5-.45-58-.32-59.76.15v8.81h8.2c2.8,0,5.6,0,8.4,0s5.38-.16,8.27.14V416.8c2.44.1,4.67.2,6.89.27C1916.72,417.1,1917.66,417.08,1919.08,417.08Zm-549-75.88H1310.3v8.91c8.29.32,16.48-.12,24.83.25v66.39h10.13v-66.3c8.41-.63,16.62.06,24.81-.36Zm874.85-205.64h-19.31c-.87,0-1.22.47-1.57,1.18-1.51,3.09-3.11,6.13-4.64,9.2-.67,1.36-1.2,2.79-1.84,4.17a3.82,3.82,0,0,0,.16,3.62q3.22,6.28,6.25,12.68a2,2,0,0,0,2.08,1.2c3.51,0,7,0,10.55,0h8.34c2.58-5.05,5.06-10,7.61-14.85a2.19,2.19,0,0,0-.13-2.23c-1.27-2.58-2.53-5.17-3.81-7.74S2246.16,138,2244.92,135.56Zm-1.51-124.37c-2.48,5-5,9.92-7.34,14.88a2.55,2.55,0,0,0,.06,2c2.17,4.54,4.46,9,6.64,13.55a2,2,0,0,0,2.07,1.2c2,0,4,.05,6,.05H2264c2.57-5.1,5-10,7.54-14.92a2.49,2.49,0,0,0-.34-2.46q-2.74-5.46-5.5-10.91c-.64-1.26-1.32-2.51-1.93-3.66-5.81,0-11.39,0-17,0C2245.65,10.91,2244.54,11.09,2243.41,11.19Zm-278,405.57V341c-2.77,0-5.39,0-8,0-.62,0-1.23.13-1.94.21v75.5Z" transform="translate(-36.32 -10.25)"/><path class="cls-2" d="M36.32,314.08c.41.57.83.49,1-.14a35.79,35.79,0,0,0,.41-3.57A128.51,128.51,0,0,1,48,268.92c4.64-10.61,10.46-20.51,18.5-29,11.18-11.76,24.78-19.52,40.21-24.24a125.72,125.72,0,0,1,34.45-5.48c14.18-.28,28.07,1.3,41.55,5.89a91.45,91.45,0,0,1,14.67,6.5c12.62,7,21.77,17.11,28,30a97.88,97.88,0,0,1,7.48,21.2c.07.3.09.62.14,1l-25.5,6.92c-.47-1.3-.82-2.34-1.21-3.38-1.27-3.36-2.46-6.76-3.84-10.07-5.64-13.55-15.64-22.54-29.23-27.73a76.78,76.78,0,0,0-26.73-5,94.29,94.29,0,0,0-29.11,3.83c-19.88,6.16-33.67,19.09-42,38a104.83,104.83,0,0,0-7.92,31,119.42,119.42,0,0,0-.42,23.23c1,11.43,2.78,22.68,7.37,33.31,8,18.47,21.56,30.8,40.47,37.43,21.37,7.49,42.66,7,63.86-.7a112.72,112.72,0,0,0,22.13-10.86c2.08-1.33,4-2.86,6-4.35a4.13,4.13,0,0,0,1.75-3.51q-.24-18.58-.45-37.18c0-.23-.09-.46-.18-1H145.17V319.54h91.32c0,.87.12,1.64.12,2.41q0,37.56,0,75.11a3.73,3.73,0,0,1-1.39,3.31c-17.67,14.14-37.24,24.48-59.39,29.53-5.82,1.32-11.82,1.88-17.74,2.8-.6.1-1.2.28-1.8.42H137.6l-4.8-.49a17.29,17.29,0,0,0-1.87-.4,117.55,117.55,0,0,1-29.71-7.3C75.52,415,57,397.57,46.48,372a120.74,120.74,0,0,1-8.8-36.92,33.09,33.09,0,0,0-.42-3.57c-.12-.67-.55-.66-.94-.12v-1.44c.48.57.88.37.89-.25,0-1.67-.07-3.35-.12-5v-4.32c0-1.52.15-3,.12-4.55,0-.61-.4-.82-.89-.25Z" transform="translate(-36.32 -10.25)"/><path class="cls-2" d="M728.48,433.12l-7.06-1c-8-1.07-15.95-2.52-23.53-5.42-19-7.25-33.22-20.06-43.19-37.69-7.43-13.15-12-27.32-14.57-42.15a152.48,152.48,0,0,1-2.27-31.28c.56-17.16,3.41-33.84,10.54-49.62,11.32-25,30.17-41.64,56.14-50.29a107.89,107.89,0,0,1,31.77-5.47c12.33-.29,24.45,1,36.11,5.13,21,7.39,36.12,21.34,45.83,41.24,1.92,3.94,3.42,8.09,5,12.18a8.57,8.57,0,0,1,.72,5l-27.4,6.31C795.78,278,795,276,794.27,274a80.5,80.5,0,0,0-7.34-14.53,48.59,48.59,0,0,0-29.79-21.53,75.55,75.55,0,0,0-46.43,2.6c-16.57,6.36-28.24,18-35,34.54a111.66,111.66,0,0,0-7.28,29.45,130.58,130.58,0,0,0-.91,22c.66,12.83,2.38,25.45,6.66,37.63,8.57,24.4,25.9,38.33,51.15,42.65a67,67,0,0,0,34.06-2.66c15.24-5.38,26.22-15.57,33.31-30a101.32,101.32,0,0,0,6.36-17.3c.3-1.06.62-2.12,1-3.28l28.26,7.07a108.37,108.37,0,0,1-4.72,15.34,94,94,0,0,1-18.8,30.69,81.18,81.18,0,0,1-42.29,24c-4.35,1-8.83,1.37-13.25,2a14.38,14.38,0,0,0-1.56.42Z" transform="translate(-36.32 -10.25)"/><path class="cls-1" d="M36.32,331.36c.39-.54.82-.55.94.12a33.09,33.09,0,0,1,.42,3.57A120.74,120.74,0,0,0,46.48,372c10.56,25.6,29,43,54.74,53a117.55,117.55,0,0,0,29.71,7.3,17.29,17.29,0,0,1,1.87.4v.49H36.32Z" transform="translate(-36.32 -10.25)"/><path class="cls-3" d="M2295.68,111c-2.23,4.56-4.45,9.12-6.7,13.68-.42.85-.94,1.66-1.41,2.5a2,2,0,0,1-2,1.08c-7,0-14,0-21.24,0l-1.91-3.82c-2-4.06-4-8.15-6.13-12.19a3.86,3.86,0,0,1,0-3.85c2.69-5.26,5.31-10.55,8-15.94h22.86c2.88,5.65,5.69,11.14,8.5,16.64Z" transform="translate(-36.32 -10.25)"/><path class="cls-1" d="M37.09,324.64c0,1.68.14,3.36.12,5,0,.62-.41.82-.89.25v-5.28Z" transform="translate(-36.32 -10.25)"/><path class="cls-1" d="M36.32,315.52c.49-.57.88-.36.89.25,0,1.52-.07,3-.12,4.55h-.77Z" transform="translate(-36.32 -10.25)"/><path class="cls-4" d="M36.32,320.32h.77v4.32h-.77Z" transform="translate(-36.32 -10.25)"/><path class="cls-4" d="M132.8,433.12v-.49l4.8.49Z" transform="translate(-36.32 -10.25)"/><path class="cls-5" d="M1361.37,64.34h5.41q70.44-.06,140.87-.15a3.29,3.29,0,0,1,3.43,2.17q18.32,36.81,36.76,73.55c6.38,12.72,12.73,25.44,19.2,38.11a6.94,6.94,0,0,1,0,7q-28.08,55.77-56,111.64a3.16,3.16,0,0,1-3.29,2c-16.87,0-33.75,0-50.63,0l-74.4,0c-6.4,0-12.8,0-19.2,0h-2.18c-.78-1.53-1.5-3-2.21-4.37q-27.32-54.56-54.61-109.11a13.93,13.93,0,0,0-.67-1.27,4.28,4.28,0,0,1-.05-4.71q21.8-43.37,43.5-86.78C1352,83.19,1356.62,73.88,1361.37,64.34Z" transform="translate(-36.32 -10.25)"/><path class="cls-6" d="M1791.54,11.23c3.06,6.24,6,12.28,9,18.28q15.12,30.24,30.27,60.45c1.51,3,2.92,6,4.5,9a3.66,3.66,0,0,1-.06,3.8q-11.84,23.42-23.56,46.91-9.71,19.4-19.31,38.85c-.28.56-.6,1.11-1,1.81H1677.57c-.44-.85-.87-1.69-1.29-2.54q-15.39-30.76-30.76-61.53c-3.86-7.72-7.6-15.5-11.49-23.2a4.58,4.58,0,0,1,0-4.65q18.54-37,37-74c1.85-3.72,3.81-7.39,5.51-11.18a3.73,3.73,0,0,1,3.89-2.46c4.88.05,9.76,0,14.64,0h55.9c10.56,0,21.11,0,31.67,0C1785.5,10.83,1788.45,11.08,1791.54,11.23Z" transform="translate(-36.32 -10.25)"/><path class="cls-7" d="M1868.38,139.26h98.86c.49.92,1,1.75,1.37,2.6,11.71,23.45,23.34,46.94,35.21,70.31,1.78,3.49,1.86,6.19.07,9.69-9.06,17.72-17.84,35.57-26.74,53.37-3.08,6.15-6.23,12.25-9.27,18.42a2.65,2.65,0,0,1-2.79,1.66q-39.83-.09-79.65-.09c-5,0-9.92-.12-14.87,0a2.91,2.91,0,0,1-3.1-1.93q-13.83-27.93-27.79-55.79c-2.92-5.86-5.81-11.75-8.84-17.55a5.58,5.58,0,0,1,0-5.64q15-29.62,29.8-59.34C1863.21,149.8,1865.72,144.64,1868.38,139.26Z" transform="translate(-36.32 -10.25)"/><path class="cls-8" d="M1064.11,213.86h29.4l112.43,168.32a11.93,11.93,0,0,0,.28-1.59c.13-2.56.32-5.11.32-7.67q0-24.35,0-48.71c0-17.35-.08-34.71-.09-52.06s0-34.87,0-52.31v-5.49c2-.67,22.37-.92,27.29-.31V429.5c-.77,0-1.47.12-2.17.12-8.32,0-16.63-.08-24.95,0a3.69,3.69,0,0,1-3.48-1.93q-37.12-55.81-74.35-111.59-17.76-26.64-35.47-53.32a4.77,4.77,0,0,0-1.19-1.3c-.43,7.94-.36,15.86-.39,23.78s0,16,0,24,0,16,0,24,0,16,0,24v72.23c-9.32.34-18.47.22-27.69.09Z" transform="translate(-36.32 -10.25)"/><path class="cls-2" d="M953.86,213.87l87.75,215.19c-2.28.72-26.58.91-32.49.31q-12.37-32.24-24.85-64.75H894.11Q882.4,397,870.62,429.48H840.43c.4-1.19.7-2.13,1.05-3.05q14.63-38.3,29.26-76.58,25.51-66.6,51.08-133.18c1-2.73,1.13-2.82,4-2.83q13.32,0,26.63,0C952.81,213.8,953.2,213.84,953.86,213.87ZM902.56,341h72.73c-2.19-5.91-4.3-11.66-6.46-17.39s-4.33-11.34-6.49-17-4.37-11.5-6.52-17.26-4.32-11.51-6.39-17.3-4-11.46-6-17.19-3.63-11.56-5.83-17.21a301.38,301.38,0,0,1-11.16,38.74q-11.41,31-23,62C903.16,339.13,902.91,339.94,902.56,341Z" transform="translate(-36.32 -10.25)"/><path class="cls-2" d="M534.91,429.17c-2.27.53-25.37.68-28.71.19v-2.74q0-42.36,0-84.71a11,11,0,0,0-1.95-6.48q-39.45-59-78.8-118.12c-.66-1-1.3-2-2.12-3.23a16.12,16.12,0,0,1,1.82-.24c10.16,0,20.32,0,30.47-.07a3.53,3.53,0,0,1,3.41,1.69c19.16,30.06,39.53,59.36,57.68,90.07,1.82,3.09,3.61,6.21,5.5,9.45.42-.61.75-1.05,1-1.51,11.48-19.7,24-38.75,36.55-57.75q13-19.71,26-39.49a4.48,4.48,0,0,1,4.22-2.42c9.83.08,19.67,0,29.51,0a7.37,7.37,0,0,1,1,.17c-.57.9-1,1.69-1.56,2.44q-27.24,39.5-54.49,79-14,20.34-28.08,40.66a7.76,7.76,0,0,0-1.49,4.67q.06,42.83,0,85.66Z" transform="translate(-36.32 -10.25)"/><path class="cls-9" d="M2135.13,128.4c5.61,11.24,11.18,22.38,16.76,33.52q3.65,7.29,7.39,14.53a3.06,3.06,0,0,1,.06,3.11q-12,23.87-24,47.76c-.14.28-.33.54-.6,1h-2.3q-30.11,0-60.21,0a3.56,3.56,0,0,1-3.81-2.32q-11.07-22.46-22.43-44.77a6,6,0,0,1,0-6.06c7.45-14.67,14.8-29.39,22.18-44.09.43-.86.87-1.7,1.38-2.7Z" transform="translate(-36.32 -10.25)"/><path class="cls-8" d="M277.25,214h28.6V404.22c9,0,17.77,0,26.53,0h79.11c.57,1.81.67,22.53.15,25.25H277.44C276.93,427.78,276.73,218,277.25,214Z" transform="translate(-36.32 -10.25)"/><path class="cls-10" d="M1671.43,210.53h2.25c15.52,0,31,.05,46.56-.05a3.46,3.46,0,0,1,3.64,2.27q9.24,18.57,18.64,37.06a2.66,2.66,0,0,1,0,2.67q-9.61,19.18-19.16,38.41a2.13,2.13,0,0,1-2.15,1.48c-16.55,0-33.11,0-49.87,0-.44-.8-.91-1.62-1.33-2.46q-9.16-18.21-18.33-36.41a3.91,3.91,0,0,1-.16-3.86q9.63-19,19.23-38.1C1670.92,211.24,1671.12,211,1671.43,210.53Z" transform="translate(-36.32 -10.25)"/><path class="cls-11" d="M2110.74,91.76h-51c-1.38-2.78-2.75-5.56-4.14-8.33-5-9.93-9.94-19.86-15-29.76a3.46,3.46,0,0,1,0-3.53c6.29-12.48,12.51-25,18.76-37.51.14-.28.31-.55.51-.91h50.86c1,2,2.05,4,3,6,4.31,8.66,8.59,17.32,12.91,26,.75,1.5,1.65,2.93,2.44,4.41a7.09,7.09,0,0,1,.06,7.06c-5.87,11.53-11.62,23.13-17.42,34.7C2111.46,90.45,2111.11,91.07,2110.74,91.76Z" transform="translate(-36.32 -10.25)"/><path class="cls-9" d="M1941.67,40.57h46.16c2,3.85,4,7.74,5.92,11.66,3.58,7.23,7.1,14.49,10.7,21.7a4,4,0,0,1,0,4c-5.47,10.83-10.84,21.72-16.25,32.59-.11.21-.26.4-.47.72h-46.24c-1-2.13-2-4.21-3.07-6.27q-6.83-13.61-13.67-27.18a3.27,3.27,0,0,1-.19-3.34c5.54-11,11-22,16.48-33A8.72,8.72,0,0,1,1941.67,40.57Z" transform="translate(-36.32 -10.25)"/><path class="cls-12" d="M1537.82,416.8h-10.4V341.27c2-.08,4-.22,6-.22,10.23,0,20.47,0,30.71.07a56.22,56.22,0,0,1,7.86.76c8.92,1.37,13.7,7.18,15.62,15.14a20.55,20.55,0,0,1-.28,10.67,17.56,17.56,0,0,1-9.6,11.65c-3,1.4-6.24,2.41-10.14,3.89a4.72,4.72,0,0,1,1.13.25,28.46,28.46,0,0,1,10,9.47c4.88,7.4,9.54,14.95,14.29,22.44a5.45,5.45,0,0,0,.5.59,6.08,6.08,0,0,0,2.83-3.37q13.38-34.39,26.83-68.77c.34-.89.72-1.76,1.1-2.69h10.3c10.48,25.17,21,50.29,31.52,75.66-4.06.62-7.84,0-11.65,0a7.92,7.92,0,0,1-.5-.91q-3.92-10.17-7.81-20.36c-.74-1.94-.74-2-3-2h-29l-8.64,23.34H1598c-5,0-9.91-.06-14.87,0a2.81,2.81,0,0,1-2.67-1.55c-4.9-7.59-9.82-15.17-14.87-22.65a32.77,32.77,0,0,0-4.89-5.57,12.67,12.67,0,0,0-8.94-3.48c-4.55,0-9.09,0-13.9,0Zm.2-66.55c-.52,2.86-.4,22.53.13,24.19,8.07,0,16.14.09,24.21-.05a19.72,19.72,0,0,0,8.84-1.92,11.08,11.08,0,0,0,6.44-11.12,10.27,10.27,0,0,0-7.27-9.75,23.85,23.85,0,0,0-7.49-1.38c-7.83-.17-15.67-.06-23.51-.06C1538.91,350.16,1538.45,350.22,1538,350.25Zm103.62,34.05c-4.25-11.28-8.34-22.16-12.54-33.34-2.72,11.58-7.73,22.1-11.6,33.34Z" transform="translate(-36.32 -10.25)"/><path class="cls-12" d="M1753.89,350.18v22.46h41.37v9.07h-41.34v26.06h46v8.77c-3.15.63-49.46.75-56.28.15-.51-1.75-.74-69.36-.26-75.2,1.87-.57,49-.85,54.85-.28.11,2.87.06,5.77,0,9Z" transform="translate(-36.32 -10.25)"/><path class="cls-13" d="M1457.18,341.2h54.7v9h-44.62v22.33h41.6v9.11c-13.73.22-27.52,0-41.58.13-.34,8.6,0,17.1-.16,25.85,15.56.39,31-.27,46.64.38v8.68c-18.91.57-37.66.42-56.38.08C1456.9,415,1456.71,345.44,1457.18,341.2Z" transform="translate(-36.32 -10.25)"/><path class="cls-14" d="M2114.3,362.68h-9.77c-.26-.86-.51-1.6-.69-2.36-1.35-5.78-5.15-9-10.78-10.28a32.75,32.75,0,0,0-14.74.06,13.15,13.15,0,0,0-7.78,4.84,8.86,8.86,0,0,0,3.48,13.47,116.52,116.52,0,0,0,16.33,4.69c3,.73,6.08,1.42,9,2.43a41.08,41.08,0,0,1,7.63,3.4c12.53,7.47,11.16,22.6,4.06,30.23a26.31,26.31,0,0,1-15,7.95,44.9,44.9,0,0,1-22-1.29c-10.61-3.43-17.13-12.56-18-23.72,0-.38,0-.77,0-1.32h9.42c.42,1.7.74,3.33,1.22,4.92a15.54,15.54,0,0,0,8.57,10.09,28,28,0,0,0,24.12.42,11.41,11.41,0,0,0,6.93-8.87,8.53,8.53,0,0,0-3.05-8.58,21.61,21.61,0,0,0-8.59-4.09c-5.63-1.49-11.32-2.77-16.92-4.38a48.65,48.65,0,0,1-8.91-3.46c-6.4-3.32-10-8.6-9.91-16,0-7.56,3.58-13.15,10-16.83,6.25-3.56,13.14-4.28,20.2-3.78a32.57,32.57,0,0,1,14,3.91C2110.22,348.16,2113.37,354.54,2114.3,362.68Z" transform="translate(-36.32 -10.25)"/><path class="cls-15" d="M2170.91,284.94q-5.65,11.16-11.26,22.24a1.84,1.84,0,0,1-1.81,1.24c-9.42,0-18.84,0-28.37,0-.83-1.64-1.62-3.2-2.39-4.75-2.74-5.5-5.44-11-8.24-16.5a4.27,4.27,0,0,1-.08-4.26c2.65-5.2,5.19-10.44,7.78-15.66a11,11,0,0,0,1.07-2.14c.81-3.28,3-3.82,6.07-3.74,7.74.19,15.5.1,23.25,0a2.92,2.92,0,0,1,3.13,1.87C2163.6,270.5,2167.26,277.67,2170.91,284.94Z" transform="translate(-36.32 -10.25)"/><path class="cls-15" d="M2172.48,62.6h29.71L2214,86.06c-1.47,2.92-2.95,5.84-4.41,8.77-2.1,4.22-4.27,8.41-6.21,12.69a2.93,2.93,0,0,1-3.1,2c-7.44,0-14.87,0-22.31,0-1.76,0-3.51,0-5.37,0-.29-.48-.61-.93-.85-1.41-3.36-6.72-6.68-13.45-10.08-20.15a3.61,3.61,0,0,1-.06-3.75C2165.3,77.11,2168.81,69.94,2172.48,62.6Z" transform="translate(-36.32 -10.25)"/><path class="cls-3" d="M2201.32,202.26h29.62c.41.7.84,1.35,1.19,2.05,3.1,6.12,6.17,12.26,9.29,18.37a5.68,5.68,0,0,1,0,5.67c-3.19,6.17-6.24,12.41-9.31,18.63a3.47,3.47,0,0,1-3.54,2.21c-8.62-.08-17.25,0-25.88,0h-1.28c-2.12-4.17-4.21-8.28-6.28-12.41-1.54-3.07-3-6.17-4.58-9.22a3.44,3.44,0,0,1-.09-3.39c2.05-4.15,4-8.35,6-12.5C2198.06,208.53,2199.7,205.43,2201.32,202.26Z" transform="translate(-36.32 -10.25)"/><path class="cls-13" d="M1430.62,371.67v-30.5h9.73c.54,1.74.71,70.9.16,75.65h-9.8v-35.5c-2.44-.78-32.93-.7-39.42.08v35.41h-10V341.28c.68-.07,1.22-.18,1.77-.18,2.62,0,5.25,0,8.14,0v30.47C1404.43,371.86,1417.41,371.62,1430.62,371.67Z" transform="translate(-36.32 -10.25)"/><path class="cls-14" d="M1672.85,341.15c.81,0,1.5-.11,2.2-.11,10.23,0,20.46-.06,30.69.1a48.88,48.88,0,0,1,9.48,1.18c7.49,1.6,12.14,6.4,14.34,13.63a24.5,24.5,0,0,1-1.1,17.54c-3.29,7.46-9.34,11.05-17.15,12.11a135.77,135.77,0,0,1-21,.69c-2.37-.05-4.75,0-7.37,0v30.6h-10Zm10.05,36.12c3.45,0,6.63,0,9.82,0,5.67.08,11.35.16,17-.82,4.72-.83,8.3-3.37,9.84-8.08a15.6,15.6,0,0,0,0-9.44,11.15,11.15,0,0,0-8.77-8.26,23.64,23.64,0,0,0-4.75-.5c-7.1-.05-14.21,0-21.32,0a16.54,16.54,0,0,0-1.82.19Z" transform="translate(-36.32 -10.25)"/><path class="cls-14" d="M1813.79,341.14H1824v2.64c0,13.75,0,27.5,0,41.25a74.85,74.85,0,0,0,.57,8.85c1.09,8.58,6,13.47,15.16,14.6a30.82,30.82,0,0,0,11.89-.84c5.21-1.39,8.66-4.56,10.14-9.83a40.16,40.16,0,0,0,1.47-10.89q0-21.46,0-42.94v-2.77h10c0,.52.13,1,.13,1.44,0,15.51.06,31-.09,46.53a48.77,48.77,0,0,1-1.36,10.18c-2,8.82-7.77,14.36-16.29,16.9a43.24,43.24,0,0,1-23.21.24c-10.21-2.57-15.84-9.42-17.59-19.59a61,61,0,0,1-.93-10c-.12-14.48-.07-29-.09-43.42Z" transform="translate(-36.32 -10.25)"/><path class="cls-16" d="M2046.19,362.49l-9.58,2.15c-1.1-2.22-1.94-4.21-3-6.06-3.1-5.35-7.81-8.24-13.93-9.05a27.32,27.32,0,0,0-10.47.56c-7.4,1.88-12.72,6.28-15.4,13.48a43.89,43.89,0,0,0-.52,29.4c4.93,15.42,21.51,18.35,31.82,13.74,6.18-2.77,9.77-7.79,11.72-14.12.19-.6.35-1.22.53-1.83a3.66,3.66,0,0,1,.26-.46c3.31.16,6.54,1.19,10,2.25-.54,1.73-1,3.33-1.53,4.88-4.67,12.66-15.06,20.08-28.52,20.36-6,.12-11.82-.36-17.36-2.83a28,28,0,0,1-13.33-12,46.94,46.94,0,0,1-6.17-22.88c-.1-6.38.4-12.62,2.82-18.6,5.08-12.51,14.58-19.19,27.75-21.08a35.63,35.63,0,0,1,15.2,1.08c10.13,2.95,16.31,9.92,19.55,19.74A6.87,6.87,0,0,1,2046.19,362.49Z" transform="translate(-36.32 -10.25)"/><path class="cls-13" d="M1919.08,417.08c-1.42,0-2.36,0-3.31,0-2.22-.07-4.45-.17-6.89-.27V350.37c-2.89-.3-5.59-.11-8.27-.14s-5.6,0-8.4,0H1884v-8.81c1.76-.47,56.26-.6,59.76-.15v8.94h-24.69Z" transform="translate(-36.32 -10.25)"/><path class="cls-13" d="M1370.07,341.2v8.89c-8.19.42-16.4-.27-24.81.36v66.3h-10.13V350.36c-8.35-.37-16.54.07-24.83-.25V341.2Z" transform="translate(-36.32 -10.25)"/><path class="cls-17" d="M2244.92,135.56c1.24,2.44,2.48,4.85,3.69,7.27s2.54,5.16,3.81,7.74a2.19,2.19,0,0,1,.13,2.23c-2.55,4.88-5,9.8-7.61,14.85h-8.34c-3.52,0-7,0-10.55,0a2,2,0,0,1-2.08-1.2q-3-6.39-6.25-12.68a3.82,3.82,0,0,1-.16-3.62c.64-1.38,1.17-2.81,1.84-4.17,1.53-3.07,3.13-6.11,4.64-9.2.35-.71.7-1.19,1.57-1.18Z" transform="translate(-36.32 -10.25)"/><path class="cls-18" d="M2243.41,11.19c1.13-.1,2.24-.28,3.35-.29,5.59,0,11.17,0,17,0,.61,1.15,1.29,2.4,1.93,3.66q2.76,5.44,5.5,10.91a2.49,2.49,0,0,1,.34,2.46c-2.51,4.9-5,9.82-7.54,14.92h-13.14c-2,0-4-.06-6-.05a2,2,0,0,1-2.07-1.2c-2.18-4.53-4.47-9-6.64-13.55a2.55,2.55,0,0,1-.06-2C2238.45,21.11,2240.93,16.19,2243.41,11.19Z" transform="translate(-36.32 -10.25)"/><path class="cls-19" d="M1965.43,416.76h-10v-75.5c.71-.08,1.32-.2,1.94-.21,2.62,0,5.24,0,8,0Z" transform="translate(-36.32 -10.25)"/><path class="cls-20" d="M902.56,341c.35-1,.6-1.83.9-2.63q11.5-31,23-62a301.38,301.38,0,0,0,11.16-38.74c2.2,5.65,3.83,11.5,5.83,17.21s3.94,11.48,6,17.19,4.23,11.54,6.39,17.3,4.34,11.51,6.52,17.26,4.35,11.33,6.49,17,4.27,11.48,6.46,17.39Z" transform="translate(-36.32 -10.25)"/><path class="cls-21" d="M1538,350.25c.43,0,.89-.09,1.35-.09,7.84,0,15.68-.11,23.51.06a23.85,23.85,0,0,1,7.49,1.38,10.27,10.27,0,0,1,7.27,9.75,11.08,11.08,0,0,1-6.44,11.12,19.72,19.72,0,0,1-8.84,1.92c-8.07.14-16.14.05-24.21.05C1537.62,372.78,1537.5,353.11,1538,350.25Z" transform="translate(-36.32 -10.25)"/><path class="cls-22" d="M1641.64,384.3H1617.5c3.87-11.24,8.88-21.76,11.6-33.34C1633.3,362.14,1637.39,373,1641.64,384.3Z" transform="translate(-36.32 -10.25)"/><path class="cls-21" d="M1682.9,377.27V350.36a16.54,16.54,0,0,1,1.82-.19c7.11,0,14.22,0,21.32,0a23.64,23.64,0,0,1,4.75.5,11.15,11.15,0,0,1,8.77,8.26,15.6,15.6,0,0,1,0,9.44c-1.54,4.71-5.12,7.25-9.84,8.08-5.6,1-11.28.9-17,.82C1689.53,377.23,1686.35,377.27,1682.9,377.27Z" transform="translate(-36.32 -10.25)"/></svg>